
        <svg xmlns="http://www.w3.org/2000/svg" xmlns:xlink="http://www.w3.org/1999/xlink" version="1.1" width="3035.7624272229023" height="3182.602251261528" viewBox="0 0 3035.7624272229023 3182.602251261528">
			
			<g transform="scale(9.130112563076398) translate(10, 10)">
				<defs id="SvgjsDefs1336"/><g id="SvgjsG1337" featureKey="rootContainer" transform="matrix(3.1383286545726086,0,0,3.1383286545726086,0,-0.6276657402674699)" fill="#fff"><g xmlns="http://www.w3.org/2000/svg"><path d="M99.4 43.1c0-.4-.1-.8-.1-1.2l-.2-1.2c-.2-1-.4-2-.7-3l-.4-1.4-.4-1.4-.5-1.6-.2-.8-.3-.8-.6-1.5-.6-1.5a13.7 13.7 0 0 0-.8-1.6l-.4-.7-.2-.3-.2-.3-1.8-2.5c-.9-1.1-1-1-.4.3s1.4 3.2 2.1 4.8l.3.6.2.6.5 1.3.5 1.3.3.7.2.7.6 1.8.4 1.8q.3 1.5.5 3c-.3-.7-.6-1.5-.9-2.1s-1.2-1.6-.9-.1l.2 1.1.3 1.3.2.7.2.7.4 1.5.4 1.5.4 1.4c.2.8.4 1.5.6 2.1s.6 1.9.8.8 0-.5.1-.6a7 7 0 0 0 .4-1.4 15.9 15.9 0 0 0 .1-3.9zM20 11.7l1.2-.7 1.3-.7.7-.4.7-.4 1.4-.9 1.3-.7.9-.5.9-.4.8-.5.8-.4 1.5-.9 1.5-.8.6-.5c.1-.1.2-.3.2-.3l-.6-.2-1.2.1-1.7.5-1 .4-1 .5-1.3.8-.4.2-.4.3-.8.5-.8.5-.8.6-1.1.8-1 .8-.9.8-.8.8c-1.1.9-.9 1.3 0 .7zM26.7 92l-1-.8-1.4-1.1-.7-.5-.7-.5-1.5-1.1-1.4-1-.4-.3-.3-.3-.7-.5-.7-.5-.7-.5-1.2-1.1-1.3-1.1-.4-.3-.9-.6.2.4.6.9.5.6.5.7.2.3.3.3 1.2 1.4 1.5 1.4.4.3.4.3.9.7.7.6.8.5 1.6.9 1.6.8 1.6.7c.7.3 1.2.4 1.2.3l-.2-.2-.3-.2zM6.1 29.8l.6-.9.7-1.1.4-.6.4-.6.8-1.3.8-1.3.7-1.2 1.2-2.1c.3-.6.4-1 .2-1l-.4.2-.3.3-.4.4-.8.9-.4.5-.4.5-.7 1-.7 1A37.7 37.7 0 0 0 5.6 29c-.6 1.8-.4 2 .5.8zM64.6 3a33.2 33.2 0 0 1 7.5 3.3l1.3.7 1.2.7 1 .6.8.5 1.2.6c.1 0 .1 0 0-.1l-.3-.4-1.4-1.3L74 6.5l-.8-.4-.8-.4-.8-.4-.8-.3-1.6-.7-1.6-.8-1.3-.5-1.5-.5c-.8-.2-1.6-.4-1.7-.2s.4.4 1.5.7zM46.8.5h3.7L50 .2h-3.2a1.8 1.8 0 0 0-.9.4z"/><path d="M16.4 89.4a3.6 3.6 0 0 0-.6-1.1l-.6-.8-.8-.9-.9-1-.9-1-.4-.5-.2-.3-.2-.3-.8-1.1-.4-.5-.4-.5-.7-1.1-.4-.5-.3-.6-.6-1.1-.2-.3-.2-.3-.3-.7-.3-.7-.3-.7c-.4-.9-.8-1.8-1.2-2.8l-.5-1.4-.5-1.4-.2-.7-.2-.7-.4-1.4q-.6-2-1-4v.2l.4 1.4.5 1.8.8 2.2.4.7.4.7.8 1.5.9 1.5 1 1.5c.4.6.5.5.2-.3l-.3-.8-.4-.9-.8-1.8-.8-1.9-.2-.5-.2-.5-.4-1-.3-.6-.2-.6-.5-1.3a48.8 48.8 0 0 1-1.9-9.2v-.3c0-.5 0-1.1.1-1.6A76 76 0 0 1 4 43.3 52.2 52.2 0 0 1 7 34c.4-.9.8-1.7 1.2-2.6l.8-1.2.7-1.2.8-1.2.8-1.2c.6-.7 1.2-1.5 1.8-2.2l.7-.8.4-.4.4-.4.8-.8.4-.4.2-.2.2-.2 1.7-1.5 1.8-1.5 1.2-1.1.6-.6.7-.5 1.4-1.1L25 14l.3-.3.3-.2.5-.3.3-.4c0-.1-.5 0-1.5.4l-1.3.6a35.5 35.5 0 0 0-7 5.1l-1 1.1-.5.6-.5.6-1 1.1-1 1.2c-1.3 1.6-2.5 3.3-3.7 5L8 29.6l-.4.5-.2.3-.2.3-.7 1.1-.7 1.1-.6 1-.3.5-.3.5-.9 1.9-.8 1.9-.2.5-.2.5-.3.8v-.8l.2-1.1v-.7l-.2.7-.3 1.1.1 1.2-.2 1.1-.2 1.1-.2 1.3-.4 1.7c-.3 1.2-.5 2.4-.6 3.6S.2 52 .1 53.2 0 55.6 0 56.8a40.4 40.4 0 0 0 1 7.9 50.2 50.2 0 0 0 2.4 7.8l.8 1.9.9 1.8.2.5.2.4.5.9.5.9.5.9.6 1.1a28.1 28.1 0 0 0 7.5 8.1c.7.5 1.5 1 1.3.4z"/><path d="M39.7 103.2l-4.9-1.9-.6-.3-.6-.3-1.3-.6-1.3-.6-.7-.3-.7-.3-1.7-.9-1.5-.9a76.3 76.3 0 0 1-6.8-5.1l-1.7-1.5c-1.3-1.1-2-1.1-1.3-.1l.4.5a6.8 6.8 0 0 0 .7 1.2l1.2 1.4 1.6 1.4.9.7 1 .7 2.4 1.7 1.3.8 1.3.7 1.4.8.7.4.7.3 1.5.7 1.5.6 1.7.6.8.2h.8l2.9.4c1.6.3 1.6.1.3-.3zM62.3 8.4l.9.3.8.3 1.8.7 1.9.7.5.2.5.2 1 .4.6.2.6.3 1.2.6a48.6 48.6 0 0 1 7.9 5.1l1.3 1.1.6.6.6.6 1.2 1.2.3.3.3.3.6.6a37.1 37.1 0 0 1 2.6 2.7l2.4 2.9.7.9.7.9.5.5-.3-.7-.6-1-.7-1-.6-1-.6-.9a38.9 38.9 0 0 0-7-7.8l-.5-.5-.6-.4-1.1-.8-.6-.4-.6-.4-1.2-.8-1.2-.7-1.2-.7-1.3-.7-1.3-.7-1.4-.9-2.1-1-.7-.2-.8-.2-1.6-.4-1.8-.5-1.8-.3c-.8-.2-.7 0 .1.4zm36.3 51.8a26.8 26.8 0 0 0 .2-9.2c-.2-.9-.4-1.7-.7-1.2a3.5 3.5 0 0 0-.4 1.2c0 .3-.1.6-.1 1s-.1.7-.1 1.2 0 .9-.1 1.3v2.7l-.2 1.4v1.3l-.2 1.3v.6l-.2.6-.8 1.1v.7l-.3.7-.3.7-.3.7c-.4.9-.7 1.9-1.1 2.8l-.6 1.4-.6 1.3-.3.7-.3.7-.7 1.3a42.9 42.9 0 0 1-3.9 5.8 38.5 38.5 0 0 1-4.9 5 76.1 76.1 0 0 1-8.5 5.7 52.1 52.1 0 0 1-8.7 4.4l-2.7.9-1.4.4-1.4.3-1.4.3-1.4.2-2.9.2h-6.5l-2.3-.3h-3.4l-1.8-.2-1.7-.3h-1.9c-.1.1.4.4 1.3.8l1.3.5a35.5 35.5 0 0 0 8.7 1h6.2c2.1-.2 4.1-.5 6.2-.9l1.4-.3H63l1.2-.2 1.2-.3 1.1-.3h.6l.6-.2 1.9-.7 1.9-.8.5-.2.5-.2.9-.5.5-.2h.5l.9-.5 1.5-.9 1.5-.9 2.9-2.1 2.8-3.1 2.6-2.5a40.3 40.3 0 0 0 4.9-6.3 50.4 50.4 0 0 0 3.8-7.2l.8-1.9.7-1.9.2-.5v-.2l-.4 1.6-.3 1-.3.9-.3.9-.3.9-.4 1.7-.4 1.6a3.5 3.5 0 0 0-.1.7c0 .2 0 .3.1.4s.3-.1.6-.3l.8-1a10.6 10.6 0 0 0 .9-1.5l.4-1 .4-1 .4-1.5v-1l.2-1 .2-1 .2-1 .2-1.3v-1.2c0-.4.1-.8.1-1.2V61c0-.3-.1-1.3-.4-.8zM35.9 8.9h.8l1.3-.2 1.8-.2h1.8l1.7-.3 1.7-.5h3.4l1.7-.2h2.2l1.1-.2H53l-1-.9h-9.3l-.9.2L40 7l-1.7.6-1.6.7c-.7.3-1.1.5-1.1.6zm37.4 89.5a33.3 33.3 0 0 1-7.6 3l-1.4.4-1.3.4-1.1.3-.9.2-1.3.5c-.1.1 0 .1.1.1h.6l1.8-.2 2.1-.6.8-.3.8-.3.8-.3.8-.3 1.7-.6 1.7-.6 1.3-.6 1.4-.7c.8-.4 1.4-.9 1.3-1.1s-.6.2-1.6.7zm14.3-10.9l-.7.7-.9.8-.4.6-.2.3v.3l.5-.2.5-.3a14.4 14.4 0 0 0 1.8-1.9 1.8 1.8 0 0 0 .3-.9z"/><circle cx="43.8" cy="103.1" r=".6"/><circle cx="48.7" cy="104.5" r=".4"/><circle cx="31.8" cy="95.1" r=".3"/><circle cx="47.3" cy="102.2" r=".3"/><circle cx="76.6" cy="96.5" r=".5"/><circle cx="80" cy="95.1" r=".9"/><circle cx="82.8" cy="92.2" r=".4"/><circle cx="90.5" cy="85.3" r=".7"/><circle cx="92.4" cy="81.3" r=".4"/><circle cx="93.9" cy="78.4" r=".3"/><circle cx="43.2" cy="1.6" r=".4"/><circle cx="36.8" cy="2.1" r=".4"/><circle cx="40.5" cy="3.7" r=".3"/><circle cx="55.7" cy="1" r=".4"/><circle cx="60.1" cy="1.7" r=".4"/><circle cx="79.5" cy="10.5" r=".5"/><circle cx="82.1" cy="13.7" r=".3"/><circle cx="85.9" cy="16.3" r=".5"/><circle cx="87" cy="18.7" r=".2"/><circle cx="84.4" cy="14.2" r=".2"/><circle cx="18" cy="13.7" r=".3"/><circle cx="12.6" cy="19.3" r=".6"/></g></g><g id="SvgjsG1338" featureKey="symbolFeature-0" transform="matrix(3.0326086956521743,0,0,3.0326086956521743,108,72)" fill="#fff"><g xmlns="http://www.w3.org/2000/svg" display="none"><rect x="-173.545" y="-46.333" display="inline" width="421.212" height="207"/></g><g xmlns="http://www.w3.org/2000/svg" display="none"><g display="inline"><g><path d="M27.173,9.639L30.845,16l-3.673,6.361h-7.345L16.155,16l3.673-6.361H27.173 M27.75,8.639h-8.5L15,16l4.25,7.361h8.5     L32,16L27.75,8.639L27.75,8.639z"/></g><g><path d="M12.173,1l3.673,6.361l-3.673,6.361H4.827L1.155,7.361L4.827,1H12.173 M12.75,0h-8.5L0,7.361l4.25,7.361h8.5L17,7.361     L12.75,0L12.75,0z"/></g><g><path d="M12.173,18.278l3.673,6.361L12.173,31H4.827l-3.673-6.361l3.673-6.361H12.173 M12.75,17.278h-8.5L0,24.639L4.25,32h8.5     L17,24.639L12.75,17.278L12.75,17.278z"/></g></g></g><g xmlns="http://www.w3.org/2000/svg"><g><path d="M15,16l4.25,7.361h8.5L32,16l-4.25-7.361h-8.5L15,16z M27.461,9.139L31.423,16l-3.961,6.861h-7.923L15.577,16l3.961-6.861    H27.461z"/><path d="M12.75,14.722L17,7.361L12.75,0h-8.5L0,7.361l4.25,7.361H12.75z M4.539,0.5h7.923l3.961,6.861l-3.961,6.861H4.539    L0.577,7.361L4.539,0.5z"/><path d="M12.75,32L17,24.639l-4.25-7.361h-8.5L0,24.639L4.25,32H12.75z M4.539,17.778h7.923l3.961,6.861L12.461,31.5H4.539    l-3.961-6.861L4.539,17.778z"/></g></g><g xmlns="http://www.w3.org/2000/svg" display="none"><g display="inline"><g><path d="M26.595,10.639L29.691,16l-3.095,5.361h-6.191L17.309,16l3.095-5.361H26.595 M27.75,8.639h-8.5L15,16     l4.25,7.361h8.5L32,16L27.75,8.639L27.75,8.639z"/></g></g><g display="inline"><g><path d="M11.595,2l3.095,5.361l-3.095,5.361H5.405L2.309,7.361L5.405,2H11.595 M12.75,0h-8.5L0,7.361l4.25,7.361     h8.5L17,7.361L12.75,0L12.75,0z"/></g></g><g display="inline"><g><path d="M11.595,19.278l3.095,5.361L11.595,30H5.405l-3.095-5.361l3.095-5.361H11.595 M12.75,17.278h-8.5     L0,24.639L4.25,32h8.5L17,24.639L12.75,17.278L12.75,17.278z"/></g></g></g><g xmlns="http://www.w3.org/2000/svg" display="none"><circle display="inline" cx="15.995" cy="16" r="16"/><g display="inline"><g><path d="M23.983,12.024L26.278,16l-2.295,3.976h-4.591L17.097,16l2.295-3.976H23.983 M24.344,11.399h-5.312     L16.375,16l2.656,4.601h5.312L27,16L24.344,11.399L24.344,11.399z"/></g><g><path d="M14.608,6.625l2.295,3.976l-2.295,3.976h-4.591l-2.295-3.976l2.295-3.976H14.608 M14.969,6H9.656     L7,10.601l2.656,4.601h5.312l2.656-4.601L14.969,6L14.969,6z"/></g><g><path d="M14.608,17.423l2.295,3.976l-2.295,3.976h-4.591l-2.295-3.976l2.295-3.976H14.608 M14.969,16.798H9.656     L7,21.399L9.656,26h5.312l2.656-4.601L14.969,16.798L14.969,16.798z"/></g></g></g><g xmlns="http://www.w3.org/2000/svg" display="none"><g display="inline"><polygon points="6.762,18.366 3.421,12.579 6.762,6.792 13.445,6.792 16.786,12.579 13.445,18.366   "/></g><g display="inline"><polygon points="18.555,11.575 15.214,5.787 18.555,0 25.238,0 28.579,5.787 25.238,11.575   "/></g><g display="inline"><polygon points="18.555,25.158 15.214,19.371 18.555,13.583 25.238,13.583 28.579,19.371 25.238,25.158   "/></g><g display="inline"><polygon points="6.762,32 3.421,26.213 6.762,20.425 13.445,20.425 16.786,26.213 13.445,32   "/></g></g><g xmlns="http://www.w3.org/2000/svg" display="none"><g display="inline"><polygon points="6.762,18.366 3.421,12.579 6.762,6.792 13.445,6.792 16.786,12.579 13.445,18.366   "/></g><g display="inline"><polygon points="18.555,11.575 15.214,5.787 18.555,0 25.238,0 28.579,5.787 25.238,11.575   "/></g><g display="inline"><polygon points="18.555,25.158 15.214,19.371 18.555,13.583 25.238,13.583 28.579,19.371 25.238,25.158   "/></g><g display="inline"><polygon points="6.762,32 3.421,26.213 6.762,20.425 13.445,20.425 16.786,26.213 13.445,32   "/></g></g></g><g id="SvgjsG1339" featureKey="nameFeature-0" transform="matrix(1.6203909747071052,0,0,1.6203909747071052,56,166.31452944475103)" fill="#fff"><path d="M0 40.08 c1.6 -8.6 1.68 -17.44 0.24 -26.08 c0.04 0.4 1.76 0.6 2 0.64 c1 0.16 2 0.28 3 0.28 c2.04 0.08 4.04 -0.16 6 -0.68 c-0.88 1.88 -0.92 4.16 -0.2 6.12 c-1.48 -0.56 -3.08 -0.72 -4.64 -0.52 c-0.24 0.04 -0.44 0.08 -0.6 0.2 c-0.2 0.16 -0.32 0.36 -0.4 0.6 c-0.52 1.4 -0.68 2.92 -0.44 4.4 c0 0.16 0.04 0.28 0.12 0.4 c0.12 0.12 0.28 0.12 0.44 0.16 c1.44 0.12 3.12 -0.16 4.44 -0.72 c-0.56 1.8 -0.6 4 0.04 5.68 c-1.44 -0.52 -2.72 -0.96 -4.16 -0.6 c-0.16 0.04 -0.28 0.08 -0.4 0.16 c-0.08 0.08 -0.16 0.24 -0.2 0.36 c-0.48 1.56 -0.44 3.28 0.12 4.8 c0.08 0.2 0.16 0.44 0.36 0.56 c0.64 0.4 2.16 0.2 2.92 0.12 c1.12 -0.08 2.28 -0.36 3.32 -0.8 c-0.68 1.56 -0.6 3.64 0.28 5.12 c-1.72 -0.56 -8 -1.16 -12.24 -0.2 z M28.661 14.2 c-1.24 6.16 -1.16 19.32 0 25.84 c-1.72 -0.6 -5 -0.76 -6.84 0.12 c0.56 -1.6 0.44 -3.36 -0.04 -4.96 c-0.48 -1.72 -3.08 -5.64 -3.56 -6.32 c0.04 4.48 0.44 8.76 1.24 11 c-1.44 -0.68 -4.76 -0.64 -6.04 0.4 c1.08 -8.44 1 -19.64 -0.52 -26 c1.6 0.84 5.36 0.08 6.36 -0.28 c-0.48 2.96 0.48 6.96 1.52 9.24 c0.68 1.6 1.56 3.12 2.56 4.52 c0.12 -5.64 -0.2 -10.52 -1.24 -13.36 c1.44 0.72 5.28 0.84 6.56 -0.2 z M34.922 14.440000000000001 c5.52 -0.16 8.92 1.84 8.92 11.32 c0 10.92 -3.24 13.48 -5.88 14.12 c-2.64 0.6 -4.08 -0.96 -7.8 0.2 c1.44 -8.6 1.36 -17.48 -0.24 -26.08 c1.56 0.4 3.4 0.48 5 0.44 z M35.961999999999996 33.84 c4.84 -0.56 3.76 -14.36 0.16 -14.8 c-0.56 1.16 -1.24 8.64 -0.16 14.8 z M59.82299999999999 18.92 c0.84 2.32 1 5.12 0.96 7.4 s-0.04 4.48 -0.56 6.68 c-0.32 1.24 -0.76 2.48 -1.4 3.56 c-1.44 2.36 -4.04 3.76 -6.8 3.4 c-2.68 -0.36 -4.76 -2.32 -5.88 -4.68 c-1.08 -2.24 -1.08 -4.88 -1.04 -7.4 c0.04 -2.24 0.04 -4.44 0.56 -6.64 c0.68 -2.84 2.92 -7.16 7.92 -7.2 c3.64 -0.04 5.52 2.92 6.24 4.88 z M50.90299999999999 33.24 c0 0.08 0.04 0.12 0.08 0.2 c0.32 0.6 0.68 1.2 1.2 1.64 c0.48 0.48 0.96 0.44 1.52 0 c0.52 -0.4 0.88 -0.96 1.16 -1.56 c1.2 -2.4 1.16 -5.08 1.12 -7.72 c-0.04 -1.72 -1 -6.24 -2.92 -6.2 c-2.52 0 -3.2 6.76 -3.16 8.84 c0.04 1.68 0.24 3.32 1 4.8 z M75.16399999999999 32.68 c-0.04 1.4 -0.68 3.64 -1.52 4.8 c-0.8 1.12 -2.04 2.68 -4.4 2.68 c-2.2 0 -4.12 -1.12 -6.76 -0.28 c1.2 -1.52 1.48 -4.12 1.24 -5.8 c1.24 0.76 3.48 1.52 5.16 0.72 c1.16 -0.56 1.68 -2.44 1.48 -3.4 c-0.48 -2.56 -7.56 -4.88 -8.16 -8.76 c-0.08 -0.48 -0.16 -1 -0.12 -1.48 c0.08 -1.88 0.84 -3.8 2.24 -5.12 c1.36 -1.32 3.92 -2 5.8 -1.84 c1.8 0.16 3.48 1.12 5.2 0.8 c-1.32 1.2 -1.96 3.72 -1.72 5.72 c-0.72 -0.8 -2.52 -1.56 -3.12 -1.6 c-1.08 -0.08 -2.48 0.48 -2.92 1.56 c-0.04 0.12 -0.12 0.32 -0.12 0.48 c0 3.24 7.84 4.84 7.72 11.52 z M91.30499999999999 18.92 c0.84 2.32 1 5.12 0.96 7.4 s-0.04 4.48 -0.56 6.68 c-0.32 1.24 -0.76 2.48 -1.4 3.56 c-1.44 2.36 -4.04 3.76 -6.8 3.4 c-2.68 -0.36 -4.76 -2.32 -5.88 -4.68 c-1.08 -2.24 -1.08 -4.88 -1.04 -7.4 c0.04 -2.24 0.04 -4.44 0.56 -6.64 c0.68 -2.84 2.92 -7.16 7.92 -7.2 c3.64 -0.04 5.52 2.92 6.24 4.88 z M82.38499999999999 33.24 c0 0.08 0.04 0.12 0.08 0.2 c0.32 0.6 0.68 1.2 1.2 1.64 c0.48 0.48 0.96 0.44 1.52 0 c0.52 -0.4 0.88 -0.96 1.16 -1.56 c1.2 -2.4 1.16 -5.08 1.12 -7.72 c-0.04 -1.72 -1 -6.24 -2.92 -6.2 c-2.52 0 -3.2 6.76 -3.16 8.84 c0.04 1.68 0.24 3.32 1 4.8 z M92.606 14.2 c4.24 0.96 10.52 0.36 12.24 -0.2 c-0.88 1.48 -0.96 3.96 -0.28 5.52 c-1.8 -0.76 -4.08 -0.64 -5.96 -0.2 c-0.16 0.04 -0.36 0.08 -0.48 0.2 c-0.12 0.08 -0.2 0.24 -0.24 0.36 c-0.64 1.4 -0.16 4.44 0 4.48 c1.04 0.44 3.16 0.32 4.72 -0.64 c-0.64 1.68 -0.48 4.32 0.36 5.84 c-1.6 -0.72 -3.44 -0.72 -5.28 -0.4 c0.12 3.76 0.28 7.44 2.08 10.72 c-1.68 -0.68 -5.44 -0.64 -6.92 0.4 c1.44 -8.6 1.36 -17.48 -0.24 -26.08 z M122.867 20.28 c-1.48 -0.76 -3.48 -1.32 -5.68 -1.52 c-0.68 6.16 -0.52 15.28 0.32 21.24 c-1.64 -0.76 -5.44 -0.8 -6.92 0.16 c0.48 -6.4 1.04 -14.76 0.68 -21.2 c-1.76 0.28 -3.44 0.76 -4.92 1.52 c0.56 -2.28 0.4 -4.2 -0.24 -6.48 c5.72 0.76 11.56 0.76 17.32 0.08 c-0.72 1.6 -0.96 4.2 -0.56 6.2 z"/></g><g id="SvgjsG1340" featureKey="sloganFeature-0" transform="matrix(0.8875777896247898,0,0,0.8875777896247898,96.20117990469168,237.8816379049552)" fill="#fff"><path d="M2.64 7.18 l-1.74 -2.1 l2.82 0 l9.58 11.4 l0 -11.4 l2.2 0 l0 14.92 l-2.16 0 l-8.56 -10.26 l0 10.26 l-2.14 0 l0 -12.82 z M32.8 12.440000000000001 q0 -1.6 -0.82 -2.9 q-0.78 -1.26 -2.13 -1.98 t-2.93 -0.72 q-1.64 0 -2.99 0.74 t-2.11 2.02 q-0.78 1.34 -0.78 2.98 q0 1.56 0.84 2.88 q0.8 1.24 2.15 1.97 t2.92 0.73 t2.92 -0.76 t2.13 -2.04 q0.8 -1.34 0.8 -2.92 z M34.96 12.559999999999999 q0 2.16 -1.12 3.98 q-1.08 1.74 -2.93 2.77 t-3.99 1.03 q-2.22 0 -4.08 -1.08 q-1.82 -1.04 -2.86 -2.86 q-1.08 -1.86 -1.08 -4.08 q0 -2.14 1.14 -3.94 q1.08 -1.72 2.93 -2.73 t3.97 -1.01 q2.18 0 4.04 1.06 q1.82 1.04 2.88 2.82 q1.1 1.86 1.1 4.04 z M49.459999999999994 7.279999999999999 l-5.26 0 l0 12.72 l-2.12 0 l0 -12.72 l-5.32 0 l0 -2.2 l12.7 0 l0 2.2 z M56.919999999999995 6.66 l-0.82 -1.84 l2.4 0 l7.18 15.18 l-2.44 0 l-0.98 -2.18 l-4.54 0 q-1.28 0 -2.3 0.24 q-0.9 0.22 -1.5 0.58 q-0.54 0.32 -0.72 0.66 l-0.38 0.7 l-2.36 0 z M58.519999999999996 15.620000000000001 l2.76 0 l-3.26 -6.3 l-3.3 7.14 q0.44 -0.38 1.34 -0.6 q1.02 -0.24 2.46 -0.24 z M76.06 7.279999999999999 l0 4.56 q0.62 -0.36 1.4 -0.5 q0.58 -0.1 1.44 -0.1 l2.56 0 q1.04 0 1.63 -0.52 t0.59 -1.54 q0 -1.9 -2.22 -1.9 l-5.4 0 z M76.06 14.059999999999999 l0 3.76 l5.62 0 q0.66 0 1.26 -0.24 q0.66 -0.24 1.04 -0.7 q0.44 -0.54 0.44 -1.24 q0 -1.2 -0.94 -1.74 q-0.74 -0.44 -2.02 -0.44 l-2.56 0 q-1.72 0 -2.84 0.6 z M86.58 15.92 q0 1.4 -0.78 2.38 q-0.68 0.86 -1.92 1.3 q-1.1 0.4 -2.42 0.4 l-7.56 0 l0 -14.92 l7.56 0 q1.28 0 2.27 0.48 t1.55 1.38 q0.58 0.94 0.58 2.22 q0 0.98 -0.35 1.75 t-0.99 1.19 q0.86 0.4 1.42 1.32 q0.64 1.06 0.64 2.5 z M92.36 14.02 l0 3.8 l9.2 0 l0 2.18 l-11.38 0 l0 -14.92 l10.5 0 l0 2.2 l-8.32 0 l0 4.52 q0.62 -0.36 1.38 -0.48 q0.56 -0.1 1.44 -0.1 l3.26 0 l0 2.22 l-3.26 0 q-0.82 0 -1.44 0.1 q-0.76 0.14 -1.38 0.48 z M105.5 7.18 l-1.74 -2.1 l2.82 0 l9.58 11.4 l0 -11.4 l2.2 0 l0 14.92 l-2.16 0 l-8.56 -10.26 l0 10.26 l-2.14 0 l0 -12.82 z M124.94 14.02 l0 3.8 l9.2 0 l0 2.18 l-11.38 0 l0 -14.92 l10.5 0 l0 2.2 l-8.32 0 l0 4.52 q0.62 -0.36 1.38 -0.48 q0.56 -0.1 1.44 -0.1 l3.26 0 l0 2.22 l-3.26 0 q-0.82 0 -1.44 0.1 q-0.76 0.14 -1.38 0.48 z"/></g>
			</g>
		</svg>
	